<svg version="1.1" xmlns="http://www.w3.org/2000/svg" xmlns:xlink="http://www.w3.org/1999/xlink" width="1em" height="1em" viewBox="0 0 92 92" style="enable-background:new 0 0 92 92;" xml:space="preserve"><style type="text/css">	.st1{fill:#26A0C1;}	.st2{fill:#1F4B90;}    </style><title>logo</title><path class="st1" d="M90,82.3c-0.1,0.3-0.2,0.6-0.3,1c-0.8,2.7-3.2,4.6-6,4.9c-0.2,0-0.5,0-0.7,0h-7.3v-2H83			c2.6,0.1,4.8-1.9,4.9-4.5c0-0.2,0-0.3,0-0.5V6.9C88.1,4.3,86,2.1,83.4,2c-0.1,0-0.3,0-0.4,0H9C6.4,1.8,4.2,3.8,4.1,6.4			c0,0.2,0,0.3,0,0.5v74.2c-0.1,2.6,1.9,4.9,4.5,5c0.2,0,0.4,0,0.5,0h7.2V88c-0.1,0-0.1,0.1-0.1,0.1c-2.8,0-5.6,0.2-8.4-0.1			c-2.9-0.3-5.1-2.5-5.6-5.4c0-0.1-0.1-0.2-0.2-0.3V5.7c0.1-0.1,0.1-0.2,0.1-0.4C2.6,2.9,4.4,1,6.7,0.3C7.1,0.1,7.4,0.1,7.8,0h76.4			c0.1,0.1,0.3,0.1,0.4,0.1C87,0.6,89,2.3,89.7,4.7c0.1,0.4,0.2,0.7,0.3,1.1V82.3z"/><path class="st2" d="M49.5,70.3c0.4,1.4,1.5,2.4,2.9,2.7c3.2,0.9,6.7-0.3,8.7-3c0.5-0.6,0.9-1.2,1.4-1.8c0.4,0.6,0.8,1.1,1.2,1.6			c0.5,0.8,1.3,1.4,2.2,1.6c1.7,0.4,3.5-0.1,4.6-1.4c2.2-2.1,3.1-5.2,2.4-8.2c-0.1-1-0.6-1.9-1.4-2.4c-0.2,0.3-0.4,0.7-0.5,1			c-0.3,1-0.6,1.9-0.8,2.9c-0.2,0.5,0,1,0.3,1.3c0.6,0.6,0.5,1-0.2,1.4c-0.2,0.1-0.5,0.2-0.8,0.3c-1.2,0.2-2.4-0.1-3.4-0.9			c-1.1-0.5-1.5-1.8-1-2.8c0,0,0,0,0-0.1c0.3-0.7,0.3-1.6,0.1-2.3c-0.4,0.2-0.7,0.4-1,0.7c-0.5,0.5-0.9,1.1-1.2,1.7			c-0.7,1-1.3,2-2.1,2.9c-2.1,2.3-5.4,3-8.3,1.7c-1.7-0.6-2.6-2.4-2.2-4.2c0.1-0.4,0.1-0.8,0.2-1.2c0-0.2-0.1-0.5-0.2-0.7			c-0.1-0.1-0.4,0-0.6,0.2c-0.7,0.5-1.4,1.1-2.1,1.6c-1.4,1.3-3.1,2.4-4.8,3.2c-1.9,0.8-4.1,0.8-6,0.1c0.1-0.2,0.2-0.4,0.3-0.7			c1.8-2.7,2.1-5.8,1.8-8.9c-0.1-1.5-0.6-2.9-1.4-4.1c-0.6-1.1-2-1.6-3.2-0.9c-0.1,0-0.2,0.1-0.2,0.2c-0.6,0.4-1.1,0.8-1.5,1.3			c-1.3,1.3-2.4,2.9-3.2,4.6c-1,2-1.4,4.2-1,6.4c0.2,0.9,0.4,1.8,0.6,2.7L28,67.1c-0.9,0.5-2,0.1-2.5-0.7c0-0.1-0.1-0.2-0.1-0.3			c-0.6-1.1-1-2.3-1.3-3.5c-0.4-3.2-0.7-6.3-0.8-9.5c-0.2-3.7-0.3-7.5-0.4-11.2c0-1.6,0-3.3,0-4.9c0.1,0,0.3,0,0.4,0			c4.1,0.9,8.3,0.9,12.4,0.2c3.9-0.9,7.7-2.4,11.1-4.5c0.5-0.3,1.1-0.6,1.7-1c0,0.3,0.1,0.7,0.2,1c0.3,1.3,0.6,2.6,1.1,3.9			c0.7,1.3,2,2.1,3.5,2c1.2,0,2.3-0.8,2.8-1.9c0.7-1.3,1.2-2.6,1.8-4c0,0,0.2,0.2,0.2,0.3c0.4,1.9,1.5,3.6,3.2,4.7			c1.2,0.9,2.7,1.3,4.2,1.1c3-0.4,5.6-2.3,6.8-5c2.4-4.5,2.6-9.8,0.5-14.4c-1-2.6-2.9-4.7-5.2-6.1c-1.7-1.2-4-0.9-5.4,0.5			c-2.2,1.9-3.4,4.7-3.3,7.6c-0.1,2.3,1.7,4.2,4,4.3c1.5,0.2,2.9,0,4.4,0.1c1.7,0.1,3.3,0.6,4.7,1.6c0.9,0.7,1,1.2,0.4,2.2			c-1.4,2.2-3.7,3.6-6.3,3.9C63.8,34,61.6,33,60.6,31c-0.4-0.7-0.7-1.4-0.9-2.2c-0.6-2.5-1-5-1.7-7.5s-1.4-4.9-2.2-7.3			c-0.2-0.5-0.5-0.9-0.8-1.4c-1.2,1.3-1.7,4.6-1.2,6.5c0.5,1.7,1,3.5,1.5,5.2c0.7,2.1,1,4.3,0.9,6.5c0,1.4-1,2.5-2.3,2.8			c-1.4,0.2-2.7-0.7-3.1-2c-0.3-1-0.4-2.1-0.2-3.2c0.1-0.6,0.1-1.1,0.1-1.7c-0.6,0.2-1.1,0.3-1.5,0.5c-1.7,0.8-3.5,1.5-5.2,2.4			c-4,2-8.5,3-13,3c-2.6,0.1-5.3-0.3-7.8-1.1c-0.4-0.1-0.8-0.5-0.8-0.9c-0.2-2.4-0.4-4.8-0.7-7.3c-0.2-2.3-0.7-4.6-1.6-6.8			c-0.3-0.6-0.6-1.2-0.9-1.8c-1,0.5-1.9,1.3-2.3,2.4c-1.2,2.5-1.9,5.1-2,7.9c-0.2,4.2,1,7.8,4.6,10.3c0.4,0.3,0.6,0.7,0.5,1.2			c0.2,5.8,0.3,11.5,0.5,17.3c0.1,3.4,0.4,6.7,0.7,10.1c0.1,1.9,0.7,3.7,1.6,5.3c2.1,3.6,6.1,4.1,9.1,1.4c0.5-0.5,1.3-0.7,2-0.5			c0.8,0.2,1.5,0.6,2.3,0.8c1.1,0.4,2.1,0.7,3.2,0.8c2.1,0.3,3.3,0,5.5-1.8c0.8-0.6,1.5-1.3,2.2-2c0.4-0.4,0.8-0.8,1.5-0.8			C49,68.1,49.2,69.2,49.5,70.3z M70,22.6c-2-0.2-4.1-0.4-6.1-0.7c-0.5-0.1-0.9-0.3-1.3-0.6c-0.8-0.5-1.2-1.5-0.8-2.4			c0.5-0.9,1.5-1.4,2.5-1.2c1.8,0.3,3.5,1.2,4.6,2.7c0.4,0.6,0.8,1.2,1.2,1.8C70.1,22.4,70,22.5,70,22.6z M17.6,18.6			c1.1,3.6,1.8,7.3,2.2,11C16.1,27.9,15.3,23.4,17.6,18.6L17.6,18.6z M33.6,64.6c-0.2,0-0.3,0.1-0.5,0.1c-0.2,0-0.4-0.1-0.5-0.2			c-0.7-0.7-1.5-1.3-2.2-2c-0.4-0.4-0.5-1-0.2-1.5c0.9-1.6,2.2-3,3.6-4.1c0.7-0.6,1.3-0.5,1.8,0.3c0.8,1.2,1.3,2.6,1.5,4			c0,0.2,0,0.4-0.2,0.6C36.2,63,35,64,33.6,64.6L33.6,64.6z M60.8,47.8l3.2,2.1c0.3,0.2,0.6,0.4,1,0.7c0.5-0.9,0.9-1.8,1.2-2.7			c0.3-0.6,0.6-0.7,1.1-0.4c1.3,0.9,2.6,1.7,3.9,2.6c0.2,0.2,0.3,0.5,0.3,0.8c-0.6,1.2-1.2,2.4-1.8,3.5c-0.2,0.4-0.5,0.3-0.8,0.1			l-2.2-1.4c-0.7-0.4-1.3-0.9-1.9-1.3c-0.7,1.1-1.2,2.2-1.9,3.5l-4.6-3.2c-0.2-0.2-0.2-0.4-0.2-0.6c0.6-1.2,1.2-2.5,1.9-3.7			C60.3,47.5,60.5,47.6,60.8,47.8z M51.7,46c1.6,0.7,3.1,1.7,4.3,3c0.2,0.2,0.2,0.5,0.1,0.8C55.6,50.8,55,52,54.4,53			c-0.2,0.4-0.5,0.5-0.9,0.2c-1-0.7-2-1.3-3-2c-1.2-0.8-1-1.1-1.9,0.5c-0.4,0.7-0.7,1.3-1.1,2.1c-1.7-1.1-3.2-2.1-4.8-3.2			c-0.1-0.2-0.1-0.4-0.1-0.6c0.6-1.3,1.2-2.5,1.8-3.7c0.2-0.2,0.4-0.2,0.6-0.2c0.9,0.5,1.8,1.1,2.7,1.7c0.5,0.4,1,0.7,1.7,1.1			c0.5-1,1-1.9,1.3-2.8C51.1,46,51.3,45.8,51.7,46z M35.7,20.4c-1.1-0.7-2.2-1.5-3.4-2.3c0.7-1.2,1.2-2.5,1.9-3.6			c0.2-0.2,0.4-0.2,0.6-0.2c0.7,0.4,1.4,0.8,2,1.2s1.2,0.9,1.8,1.3c0.5-0.9,0.9-1.7,1.3-2.5c0.2-0.4,0.5-0.5,0.8-0.2			c1.2,0.8,2.4,1.6,3.6,2.4c0.2,0.2,0.3,0.4,0.2,0.7c-0.2,1.2-0.8,2.4-1.7,3.4c-0.2,0.1-0.4,0.2-0.6,0.1c-0.6-0.3-1.1-0.7-1.6-1.1			c-0.7-0.5-1.3-0.9-2.1-1.5c-0.3,0.6-0.6,1.2-0.9,1.8C37,21.3,37,21.3,35.7,20.4L35.7,20.4z M68,10.3c-0.1-0.1-0.2-0.3-0.2-0.6			c0.6-1.3,1.2-2.6,1.8-3.8c1.6,0.7,3,1.6,4.3,2.7c0.2,0.3,0.3,0.6,0.2,0.9c-0.5,1.1-1.1,2.2-1.7,3.3c-0.1,0.1-0.5,0.2-0.6,0.1			C70.5,12,69.2,11.2,68,10.3z M64.5,49c-1.4-1-2.8-1.9-4.2-2.9c-0.1-0.1-0.1-0.5,0-0.7c0.5-1.2,1.1-2.3,1.8-3.7			c0.7,0.3,1.3,0.6,1.9,1c0.8,0.5,1.6,1.1,2.3,1.7c0.2,0.2,0.3,0.5,0.3,0.8C66.2,46.6,65.5,47.9,64.5,49z M38,43.4			c0.4,0.2,0.6,0.7,0.3,1.1c0,0,0,0,0,0c-0.4,0.8-0.8,1.6-1.2,2.4c-0.7,1.2-0.7,1.2-1.8,0.4S33,45.8,31.8,45c0.6-1.3,1.3-2.7,2-4.1			c0.6,0.2,1.1,0.5,1.7,0.8C36.3,42.2,37.1,42.8,38,43.4z M35.5,87.4c-0.5,2.1-2.1,3.1-3.7,4.1c-0.2,0.1-0.4,0.3-0.7,0.4h-0.3			c-1-0.2-2-0.6-3-1c0.2-0.2,2.8-1.3,3.9-1.8c0.7-0.4,1.3-0.9,1.8-1.4c0.7-0.9,0.8-2.1,0.2-3.1c-0.3-0.5-0.2-1.2,0.3-1.5			c0.2-0.2,0.4-0.4,0.6-0.6c0.4-0.3,0.6-0.3,0.8,0.2c0.2,0.7,0.3,1.4,0.5,2.2s0.6,0.9,1.3,1c0.6,0.1,1.2,0.2,1.8,0.1			c0.9-0.1,1-0.5,0.6-1.3c-0.1-0.1-0.1-0.3-0.2-0.4c-0.2-0.3-0.5-0.6-0.5-0.8c0.2-0.5,0.4-1.1,0.7-1.5c0.2-0.1,0.4-0.1,0.6,0			c1.2,1.6,1.2,3.7,0,5.3c-0.4,0.5-1.1,0.8-1.7,0.8C37.4,88.3,36.3,88,35.5,87.4L35.5,87.4z M74.9,87.8c-0.1,0.2-0.2,0.3-0.4,0.3			c-1.8,0-3.5,0-5.3,0c-0.5-0.1-1.1-0.3-1.6-0.5c-0.5,1.9-2.1,3-3.7,4c-0.2,0.1-0.4,0.3-0.7,0.4H63c-0.8-0.2-1.7-0.3-2.5-0.6			c-0.2-0.1-0.3-0.3-0.5-0.4c0.2-0.2,0.3-0.4,0.6-0.5c1-0.4,2-0.7,3-1.1c0.4-0.1,0.7-0.3,1-0.5c1.5-0.7,2.2-2.6,1.4-4.1			c0,0,0-0.1,0-0.1c-0.3-0.5-0.2-1.2,0.3-1.5c0.2-0.2,0.3-0.4,0.5-0.5c0.4-0.4,0.7-0.3,0.8,0.2s0.3,1.5,0.4,2.2c0.1,0.6,0.6,1,1.2,1			c1.5,0.1,3.1,0.2,4.6,0.3C74.8,86.3,75.2,86.8,74.9,87.8L74.9,87.8z M59.6,83.8c0,0.4-0.5,1-0.8,1.4c0,0-0.5-0.1-0.5-0.2			c-0.3-0.9-1-0.7-1.6-0.5c-0.5,0.2-0.9,0.5-1.3,0.8l0.1,0.2c0.2,0.1,0.4,0.2,0.7,0.2c0.5,0.2,1,0.2,1.4,0.4c0.9,0.4,1,0.8,1,1.8			c0,1.2-0.8,2.2-2,2.4c-2,0.7-4,0.9-6.1,0.7c-1.8-0.3-2.7-1.5-2.2-3.3c0.3-1.2,0.7-2.3,1.2-3.4c1.1,0.5,1.1,0.5,0.8,1.4			c-0.2,0.5-0.4,1.1-0.4,1.7c-0.1,0.9,0.2,1.5,1.1,1.6c2.2,0.3,4.4,0.1,6.4-0.7c0-0.1,0-0.1,0-0.2c-0.3-0.1-1.5-0.5-1.7-0.6			c-1.5-0.3-1.8-0.9-1.3-2.4c0.6-1.4,1.5-2.7,3.3-2.8C58.6,82.3,59.4,82.9,59.6,83.8L59.6,83.8z M26.1,82.8c0.6,1.4,0.9,2.9-0.2,4.3			c-0.5,0.7-1.3,1-2.1,1c-1,0-2,0-3,0H18c-0.9,0-1-0.1-1-1.1c0-1,0-0.8,0.9-0.8h5.3c0.5,0,0.9-0.1,1.4-0.2c0.5-0.1,0.7-0.4,0.5-1			c-0.1-0.3-0.2-0.6-0.5-0.9c-0.3-0.3-0.3-0.8-0.1-1.1c0-0.1,0.6-0.8,0.9-1.1C25.6,82.2,25.9,82.5,26.1,82.8L26.1,82.8z M28.8,85.8			c0.1-2.7,0-5.3-0.5-7.9c0-0.2,0-0.3,0.2-0.4c0.2-0.2,0.3-0.4,0.5-0.5c0.2-0.2,0.5-0.3,0.8-0.4c0.1,0.2,0.3,0.5,0.3,0.8			c0.1,1.8,0.2,5.4,0.1,5.4v4.1c0,0.8-0.6,1.1-1.1,1.6c-0.1,0.1-0.5-0.1-0.6-0.2s-0.1-0.3,0-0.5C28.6,87.1,28.7,86.4,28.8,85.8			L28.8,85.8z M44.8,77.4c0.2,1.8,0.2,3.6,0.2,5.4v4.1c0,0.8-0.6,1.1-1.1,1.6c-0.1,0.1-0.5,0-0.6-0.2c-0.1-0.2-0.1-0.3,0-0.5			c0.4-0.6,0.5-1.3,0.4-2c0.1-2.6-0.1-5.2-0.6-7.8c0-0.2,0-0.3,0.1-0.5c0.1-0.2,0.3-0.4,0.5-0.5c0.3-0.2,0.5-0.3,0.8-0.5			C44.6,76.8,44.7,77.1,44.8,77.4L44.8,77.4z M60.6,87.7c0.3-0.6,0.5-1.3,0.4-2c0.1-2.6-0.1-5.2-0.5-7.8c-0.1-0.2,0.2-0.6,0.5-0.8			c0.3-0.3,0.6-0.5,0.9-0.7c0.2,0.4,0.3,0.7,0.4,1.1c0.1,1.7,0.2,3.4,0.1,5.2v4.1c0,0.8-0.6,1.1-1.1,1.6c-0.1,0.1-0.4-0.1-0.6-0.2			C60.6,88.1,60.6,87.9,60.6,87.7z M41,90c0.3,0.3,0.5,0.5,0.1,0.9c-0.8,0.9-0.8,0.9-1.9-0.1c-0.3,0.3-0.7,0.6-1.2,0.7			c-0.2,0-0.6-0.4-0.8-0.7c-0.5-0.6,0.2-0.8,0.4-1c0.5-0.5,0.5-0.5,1.6,0.4C40.3,89.3,40.3,89.3,41,90z M73.6,89.1			c0.4,0.4,0.8,0.8,1.2,1.3l-1.3,1.1l-1.3-1.1C72.7,89.9,73.1,89.6,73.6,89.1L73.6,89.1z M24.6,80.6c-0.4-0.4-1-0.7-1-1.1			c0-0.4,0.6-0.8,1-1.3c0.4,0.5,1,0.9,1,1.3C25.6,79.9,24.9,80.2,24.6,80.6L24.6,80.6z"/></svg>