<svg width="25" height="25" fill="none" xmlns="http://www.w3.org/2000/svg"><path fill-rule="evenodd" clip-rule="evenodd" d="M18.382 7.598a2.257 2.257 0 0 1 2.95 1.222c.492 1.19-.055 2.51-1.206 2.987l-.484.2c-.657.272-.656.714 0 .986l.484.2a2.257 2.257 0 0 1 1.22 2.95c-.492 1.188-1.812 1.736-2.964 1.26l-.484-.201c-.657-.272-.968.041-.696.696l.2.485a2.257 2.257 0 0 1-1.222 2.948c-1.19.493-2.51-.054-2.987-1.205l-.2-.484c-.273-.657-.714-.655-.986 0l-.2.484a2.257 2.257 0 0 1-2.95 1.22c-1.189-.492-1.736-1.812-1.26-2.963l.201-.485c.272-.657-.041-.968-.696-.696l-.485.2A2.257 2.257 0 0 1 3.67 16.18c-.493-1.19.054-2.51 1.205-2.987l.484-.2c.657-.272.655-.714 0-.986l-.484-.2a2.257 2.257 0 0 1-1.22-2.95c.492-1.189 1.812-1.736 2.963-1.26l.485.201c.656.272.968-.041.696-.696l-.2-.484a2.257 2.257 0 0 1 1.222-2.95c1.19-.492 2.51.055 2.987 1.206l.2.484c.272.657.714.656.986 0l.2-.484a2.257 2.257 0 0 1 2.95-1.22c1.188.492 1.736 1.812 1.26 2.964l-.201.484c-.273.656.041.968.696.696l.484-.2z" fill="#FFD25E"/></svg>